<svg id="Capa_1" enable-background="new 0 0 512 512" height="512" viewBox="0 0 512 512" width="512" xmlns="http://www.w3.org/2000/svg"><g><path d="m183.659 358.842c-4.143 0-7.5 3.357-7.5 7.5v13.618c0 4.143 3.357 7.5 7.5 7.5s7.5-3.357 7.5-7.5v-13.618c0-4.143-3.358-7.5-7.5-7.5zm302.372 26.27c4.143 0 7.5-3.357 7.5-7.5v-253.512h3.97c7.995 0 14.5-6.505 14.5-14.5v-27.199c0-7.995-6.505-14.5-14.5-14.5h-149.7c-12.043-39.268-48.639-67.901-91.801-67.901s-79.757 28.633-91.801 67.9h-149.699c-7.995 0-14.5 6.505-14.5 14.5v27.2c-.067 9.688 9.255 15.927 18.47 14.5v331.699c-9.305-1.286-18.47 4.641-18.47 14.5v27.201c0 7.995 6.505 14.5 14.5 14.5h483c7.995 0 14.5-6.505 14.5-14.5v-27.201c.014-10.038-9.208-15.716-18.47-14.5v-43.188c0-4.143-3.357-7.5-7.5-7.5s-7.5 3.357-7.5 7.5v43.188h-234.68v-198.999c0-12.406-10.094-22.5-22.5-22.5h-135.38c-12.406 0-22.5 10.094-22.5 22.5v198.999h-30v-331.699h26.207c4.143 0 7.5-3.357 7.5-7.5s-3.357-7.5-7.5-7.5h-44.677v-26.199h145.897c-.586 4.284-.897 8.656-.897 13.099s.31 8.815.897 13.1h-66.22c-4.143 0-7.5 3.357-7.5 7.5s3.357 7.5 7.5 7.5h69.522c12.044 39.267 48.64 67.9 91.801 67.9s79.757-28.633 91.801-67.9h130.729v253.512c.001 4.142 3.358 7.5 7.501 7.5zm-324.87-135.812h60.189c4.136 0 7.5 3.364 7.5 7.5v198.999h-67.689zm-82.691 7.5c0-4.136 3.364-7.5 7.5-7.5h60.19v206.499h-67.69zm407.541 213.999c.006 0 .013.001.019.001s.013-.001.019-.001h10.951v26.201h-482v-26.201zm-230.011-293.799c-44.663 0-81-36.337-81-81s36.337-81 81-81 81 36.337 81 81-36.337 81-81 81zm95.103-67.9c.587-4.285.897-8.656.897-13.1s-.31-8.815-.897-13.1h145.897v26.2zm-97.363-49.592-34.231 34.231c-10.61 10.482-10.657 28.196 0 38.752 0 0 0 0 .001.001 10.485 10.485 28.268 10.603 38.752 0l34.231-34.231c10.596-10.504 10.456-28.296 0-38.752-10.578-10.577-28.26-10.593-38.753-.001zm-6.086 62.377c-4.747 4.794-12.811 4.775-17.538.001l-.001-.001c-4.793-4.746-4.793-12.792.001-17.538l11.812-11.812 17.538 17.538zm34.231-34.231-11.812 11.812-17.538-17.538 11.812-11.812c4.74-4.803 12.765-4.774 17.539 0 4.749 4.749 4.796 12.793-.001 17.538zm-158.226 271.188c-4.143 0-7.5 3.357-7.5 7.5v13.618c0 4.143 3.357 7.5 7.5 7.5s7.5-3.357 7.5-7.5v-13.618c0-4.143-3.358-7.5-7.5-7.5zm172.688-124.54c-12.406 0-22.5 10.094-22.5 22.5v82.698c0 12.406 10.094 22.5 22.5 22.5h129.684c12.406 0 22.5-10.094 22.5-22.5v-82.698c0-12.406-10.094-22.5-22.5-22.5zm57.342 112.698h-57.342c-4.136 0-7.5-3.364-7.5-7.5v-33.849h64.842zm0-56.348h-64.842v-33.85c0-4.136 3.364-7.5 7.5-7.5h57.342zm79.842 48.848c0 4.136-3.364 7.5-7.5 7.5h-57.342v-41.349h64.842zm0-82.698v33.85h-64.842v-41.35h57.342c4.135 0 7.5 3.364 7.5 7.5z"/></g></svg>